<svg width="17" height="17" viewBox="0 0 17 17" fill="none" xmlns="http://www.w3.org/2000/svg">
<path d="M11.7008 6.62071H14.8883V3.43321" stroke="#3A55DB" stroke-width="2" stroke-linecap="round" stroke-linejoin="round"/>
<path d="M4.36953 4.36952C4.91167 3.82659 5.55553 3.39587 6.26427 3.102C6.97302 2.80812 7.73275 2.65686 8.5 2.65686C9.26726 2.65686 10.027 2.80812 10.7357 3.102C11.4445 3.39587 12.0883 3.82659 12.6305 4.36952L14.8883 6.62069" stroke="#3A55DB" stroke-width="2" stroke-linecap="round" stroke-linejoin="round"/>
<path d="M5.29922 10.3793H2.11172V13.5668" stroke="#3A55DB" stroke-width="2" stroke-linecap="round" stroke-linejoin="round"/>
<path d="M12.6305 12.6305C12.0883 13.1734 11.4445 13.6041 10.7357 13.898C10.027 14.1919 9.26726 14.3431 8.5 14.3431C7.73275 14.3431 6.97302 14.1919 6.26427 13.898C5.55553 13.6041 4.91167 13.1734 4.36953 12.6305L2.11172 10.3793" stroke="#3A55DB" stroke-width="2" stroke-linecap="round" stroke-linejoin="round"/>
</svg>
